<svg width="354px" height="241px" viewBox="0 0 354 241" version="1.1" xmlns="http://www.w3.org/2000/svg" xmlns:xlink="http://www.w3.org/1999/xlink">
    <g id="H5推荐有礼" stroke="none" stroke-width="1" fill="none" fill-rule="evenodd">
        <g id="主页" transform="translate(0.000000, -16.000000)">
            <g id="分组-11" transform="translate(-32.000000, 12.000000)">
                <g id="分组-7" transform="translate(314.000000, 171.000000)" fill-rule="nonzero">
                    <path d="M38.5,10.8378748 C22.215797,10.8378748 9,24.0536718 9,40.3378748 C9,56.6217827 22.216092,69.8378748 38.5,69.8378748 C54.783908,69.8378748 68,56.6217827 68,40.3378748 C68,24.0536718 54.7839079,10.8378748 38.5,10.8378748 Z" id="路径-copy-4" fill="#CEA500"></path>
                    <path d="M41.6621252,13 C25.3779223,13 12.1621252,26.2157971 12.1621252,42.5 C12.1621252,58.783908 25.3782173,72 41.6621252,72 C57.9460332,72 71.1621252,58.783908 71.1621252,42.5 C71.1621252,26.2157971 57.9460332,13 41.6621252,13 Z M53.4623022,41.6150531 L43.4320191,41.6150531 L43.4320191,46.6297522 L51.3971311,46.6297522 C52.4590674,46.6297522 53.3145161,47.4854959 53.3145161,48.5474321 C53.3145161,49.6096634 52.4590674,50.4654071 51.3971311,50.4654071 L43.4320191,50.4654071 L43.4320191,59.4036658 C43.4320191,60.465602 42.5768654,61.3213457 41.5146341,61.3213457 C40.4524027,61.3213457 39.5969541,60.465602 39.5969541,59.4036658 L39.5969541,50.4654071 L31.9271193,50.4654071 C30.865183,50.4654071 30.0097344,49.6096634 30.0097344,48.5474321 C30.0097344,47.4854959 30.865183,46.6297522 31.9271193,46.6297522 L39.5969541,46.6297522 L39.5969541,41.6150531 L29.8622432,41.6150531 C28.800012,41.6150531 27.9448583,40.7596045 27.9448582,39.6976681 C27.9448582,38.6357318 28.8000119,37.7802832 29.8622432,37.7802832 L37.5320781,37.7802832 L29.2722786,28.900431 C28.5348229,28.1039787 28.5938194,26.8945513 29.3902715,26.1570956 C30.1867238,25.4196398 31.4256494,25.4786363 32.1631052,26.2750885 L41.5441323,36.4525679 L50.8956612,26.2750885 C51.6328219,25.4786363 52.8720426,25.4196398 53.6684949,26.1570956 C54.4646521,26.8945513 54.5239435,28.0744805 53.7864878,28.900431 L45.5561866,37.7799882 L53.4623022,37.7799882 C54.5245335,37.7799882 55.3796872,38.6354369 55.3796872,39.6973732 C55.3796872,40.7593095 54.4947403,41.6150531 53.4623022,41.6150531 Z" id="形状" fill="#FDDF65" transform="translate(41.662125, 42.500000) rotate(48.000000) translate(-41.662125, -42.500000) "></path>
                </g>
                <g id="分组-6" transform="translate(127.000000, 212.000000)" fill-rule="nonzero">
                    <path d="M19.5,4 C11.4959002,4 5,10.4959003 5,18.5 C5,26.5039548 11.4960452,33 19.5,33 C27.5039548,33 34,26.5039548 34,18.5 C34,10.4959003 27.5039547,4 19.5,4 Z" id="路径-copy-5" fill="#CEA500"></path>
                    <path d="M17.6978597,2.69785973 C9.69375996,2.69785973 3.19785973,9.19375998 3.19785973,17.1978597 C3.19785973,25.2018145 9.69390496,31.6978597 17.6978597,31.6978597 C25.7018145,31.6978597 32.1978597,25.2018145 32.1978597,17.1978597 C32.1978597,9.19375998 25.7018145,2.69785973 17.6978597,2.69785973 Z M23.4979467,16.7628858 L18.5678075,16.7628858 L18.5678075,19.2277379 L22.4828626,19.2277379 C23.0048313,19.2277379 23.4253061,19.6483577 23.4253061,20.1703264 C23.4253061,20.69244 23.0048313,21.1130598 22.4828626,21.1130598 L18.5678075,21.1130598 L18.5678075,25.5064412 C18.5678075,26.0284099 18.1474778,26.4490296 17.6253641,26.4490296 C17.1032504,26.4490296 16.6827756,26.0284099 16.6827756,25.5064412 L16.6827756,21.1130598 L12.9128568,21.1130598 C12.3908881,21.1130598 11.9704134,20.69244 11.9704134,20.1703264 C11.9704134,19.6483577 12.3908881,19.2277379 12.9128568,19.2277379 L16.6827756,19.2277379 L16.6827756,16.7628858 L11.8979177,16.7628858 C11.375804,16.7628858 10.9554743,16.3424111 10.9554743,15.8204424 C10.9554742,15.2984737 11.375804,14.8779989 11.8979177,14.8779989 L15.6678365,14.8779989 L11.6079351,10.5133258 C11.2454569,10.1218493 11.2744551,9.52738496 11.6659316,9.16490671 C12.0574082,8.80242846 12.6663716,8.83142673 13.0288499,9.22290323 L17.6398632,14.2253931 L22.2363774,9.22290323 C22.5987106,8.83142671 23.2078191,8.80242846 23.5992956,9.16490671 C23.9906272,9.52738496 24.0197704,10.1073502 23.6572922,10.5133258 L19.6118899,14.8778539 L23.4979467,14.8778539 C24.0200604,14.8778539 24.4403902,15.2983287 24.4403902,15.8202974 C24.4403902,16.3422661 24.0054163,16.7628858 23.4979467,16.7628858 Z" id="形状" fill="#FDDF65" transform="translate(17.697860, 17.197860) rotate(-12.000000) translate(-17.697860, -17.197860) "></path>
                </g>
                <g id="分组" transform="translate(75.000000, 36.000000)" fill-rule="nonzero">
                    <polygon id="路径-6-copy" fill="#D64540" points="289.711736 73.4760922 68.5877479 158.936714 54.9970216 134.183037 285.148698 0.154737765"></polygon>
                    <polygon id="路径-4" fill="#FF6C67" points="285.602664 0 0 55.7274299 0 134 290 73.7579251"></polygon>
                    <polygon id="路径-5" fill="#FF6C67" points="273.999684 91 55 134.127151 68.6499178 159 277 115.263595"></polygon>
                </g>
                <text id="推-荐-有-礼" transform="translate(219.500000, 102.000000) rotate(-10.000000) translate(-219.500000, -102.000000) " font-family="PingFangSC-Semibold, PingFang SC" font-size="40" font-weight="500" letter-spacing="-0.4285715" fill="#FFFFFF">
                    <tspan x="121.02" y="116">推 荐 有 礼</tspan>
                </text>
                <g id="分组-8" transform="translate(337.000000, 0.000000)" fill-rule="nonzero">
                    <path d="M25,4 C14.5118693,4 6,12.5118693 6,23 C6,33.4879407 14.5120593,42 25,42 C35.4879407,42 44,33.4879407 44,23 C44,12.5118693 35.4879407,4 25,4 Z" id="路径-copy" fill="#CEA500"></path>
                    <path d="M24.1506479,5.15064787 C13.6625171,5.15064787 5.15064787,13.6625172 5.15064787,24.1506479 C5.15064787,34.6385886 13.6627071,43.1506479 24.1506479,43.1506479 C34.6385886,43.1506479 43.1506479,34.6385886 43.1506479,24.1506479 C43.1506479,13.6625172 34.6385886,5.15064787 24.1506479,5.15064787 Z M31.7507619,23.5806821 L25.2905795,23.5806821 L25.2905795,26.8104883 L30.4206517,26.8104883 C31.1046106,26.8104883 31.6555775,27.3616452 31.6555776,28.0456042 C31.6555776,28.7297531 31.1046107,29.28091 30.4206517,29.28091 L25.2905795,29.28091 L25.2905795,35.0377546 C25.2905795,35.7217136 24.7398025,36.2728705 24.0556535,36.2728705 C23.3715046,36.2728705 22.8205377,35.7217136 22.8205377,35.0377546 L22.8205377,29.28091 L17.880644,29.28091 C17.1966851,29.28091 16.6457182,28.7297531 16.6457182,28.0456042 C16.6457182,27.3616452 17.1966851,26.8104883 17.880644,26.8104883 L22.8205377,26.8104883 L22.8205377,23.5806821 L16.5507239,23.5806821 C15.8665749,23.5806821 15.315798,23.0297152 15.3157979,22.3457562 C15.3157979,21.6617972 15.8665749,21.1108303 16.5507239,21.1108303 L21.4906175,21.1108303 L16.1707467,15.3916034 C15.6957752,14.8786342 15.7337729,14.0996809 16.2467421,13.6247094 C16.7597113,13.1497379 17.5576634,13.1877357 18.032635,13.7007049 L24.0746524,20.2556916 L30.097671,13.7007049 C30.5724525,13.1877356 31.3705947,13.1497379 31.8835639,13.6247094 C32.3963431,14.0996809 32.4345308,14.8596353 31.9595593,15.3916034 L26.6586874,21.1106403 L31.7507619,21.1106403 C32.4349108,21.1106403 32.9856878,21.6616072 32.9856878,22.3455662 C32.9856878,23.0295252 32.415722,23.5806821 31.7507619,23.5806821 Z" id="形状" fill="#FDDF65" transform="translate(24.150648, 24.150648) rotate(-19.000000) translate(-24.150648, -24.150648) "></path>
                </g>
                <text id="这是一条文案" transform="translate(243.000000, 162.000000) rotate(-11.000000) translate(-243.000000, -162.000000) " font-family="PingFangSC-Regular, PingFang SC" font-size="14" font-weight="normal" letter-spacing="-0.15" fill="#FFFFFF">
                    <tspan x="170" y="166">共同推进律所信息化建设</tspan>
                </text>
                <g id="分组-5" transform="translate(0.000000, 65.000000)" fill-rule="nonzero">
                    <path d="M61.5,15 C39.1437213,15 21,33.1437214 21,55.5 C21,77.8558737 39.1441263,96 61.5,96 C83.8558737,96 102,77.8558737 102,55.5 C102,33.1437214 83.8558736,15 61.5,15 Z" id="路径" fill="#CEA500"></path>
                    <path d="M56.9527517,15.9055035 C34.5964731,15.9055035 16.4527517,34.0492249 16.4527517,56.4055035 C16.4527517,78.7613771 34.5968781,96.9055035 56.9527517,96.9055035 C79.3086254,96.9055035 97.4527517,78.7613771 97.4527517,56.4055035 C97.4527517,34.0492249 79.3086253,15.9055035 56.9527517,15.9055035 Z M73.1529947,55.1905764 L59.3826059,55.1905764 L59.3826059,62.0751633 L70.3177598,62.0751633 C71.7756723,62.0751633 72.9501018,63.2499978 72.9501019,64.7079103 C72.9501019,66.1662278 71.7756724,67.3410623 70.3177598,67.3410623 L59.3826059,67.3410623 L59.3826059,79.612231 C59.3826059,81.0701436 58.2085814,82.2449781 56.7502638,82.2449781 C55.2919462,82.2449781 54.1175168,81.0701436 54.1175168,79.612231 L54.1175168,67.3410623 L43.5877436,67.3410623 C42.1298311,67.3410623 40.9554016,66.1662278 40.9554016,64.7079103 C40.9554016,63.2499978 42.1298311,62.0751633 43.5877436,62.0751633 L54.1175168,62.0751633 L54.1175168,55.1905764 L40.7529137,55.1905764 C39.2945962,55.1905764 38.1205717,54.0161469 38.1205716,52.5582343 C38.1205715,51.1003217 39.2945961,49.9258923 40.7529137,49.9258923 L51.2826869,49.9258923 L39.9429623,37.7349087 C38.9305231,36.6414743 39.0115182,34.9810739 40.1049526,33.9686347 C41.198387,32.9561954 42.8992849,33.0371906 43.9117242,34.130625 L56.7907615,48.1030966 L69.6293011,34.130625 C70.6413353,33.0371905 72.3426383,32.9561954 73.4360727,33.9686347 C74.5291022,34.9810739 74.6105022,36.6009767 73.598063,37.7349087 L62.298836,49.9254873 L73.1529947,49.9254873 C74.6113122,49.9254873 75.7853368,51.0999168 75.7853368,52.5578294 C75.7853368,54.015742 74.5704097,55.1905764 73.1529947,55.1905764 Z" id="形状" fill="#FDDF65" transform="translate(56.952752, 56.405503) rotate(35.000000) translate(-56.952752, -56.405503) "></path>
                </g>
            </g>
        </g>
    </g>
</svg>