<?xml version="1.0" encoding="utf-8"?>
<!-- Generator: Adobe Illustrator 18.1.1, SVG Export Plug-In . SVG Version: 6.00 Build 0)  -->
<!DOCTYPE svg PUBLIC "-//W3C//DTD SVG 1.1//EN" "http://www.w3.org/Graphics/SVG/1.1/DTD/svg11.dtd">
<svg version="1.1" id="Layer_1" xmlns="http://www.w3.org/2000/svg" xmlns:xlink="http://www.w3.org/1999/xlink" x="0px" y="0px"
	 width="120px" height="48px" viewBox="0 0 120 48" enable-background="new 0 0 120 48" xml:space="preserve">


<!-- 我的 -->
<path fill="#238EF0" d="M83.9,37.5c-6.3,0-11.5,3.5-11.5,7.7c0,1.5,1,2,3.9,2.5C78.6,48,81.2,48,84,48c2.9,0,5.7,0,7.7-0.3
		c2.8-0.5,3.8-1,3.8-2.5C95.5,40.9,90.3,37.5,83.9,37.5L83.9,37.5z"/>
	<path fill="#238EF0" d="M77.8,30.2c0,3.4,2.8,6.2,6.2,6.2c3.4,0,6.2-2.8,6.2-6.2S87.4,24,84,24C80.6,24,77.8,26.8,77.8,30.2L77.8,30.2
		L77.8,30.2z"/>

<!-- 我的 -->
<path fill="#FFFFFF" d="M23.3,11.4L23.3,11.4L13.4,0.7l0,0C13.1,0.3,12.6,0,12,0l0,0l0,0c0,0,0,0,0,0c-0.5,0-0.9,0.2-1.2,0.5l0,0
	l-10,10.8l0,0c-0.3,0.3-0.5,0.7-0.5,1.2c0,0.9,0.7,1.6,1.6,1.6c0,0,0,0,0,0l0,0H3v5.5C3,22,3.3,24,5.7,24h3.8v-7.6h4.9V24h3.8
	c2.4,0,2.7-2,2.7-4.4v-5.5h1.1c0.9,0,1.6-0.7,1.6-1.6C23.7,12.1,23.6,11.7,23.3,11.4L23.3,11.4z"/>

<!-- 我的 -->
<path fill="#FFFFFF" d="M83.9,13.5c-6.3,0-11.5,3.5-11.5,7.7c0,1.5,1,2,3.9,2.5C78.6,24,81.2,24,84,24c2.9,0,5.7,0,7.7-0.3
		c2.8-0.5,3.8-1,3.8-2.5C95.5,16.9,90.3,13.5,83.9,13.5L83.9,13.5z"/>
		<path fill="#FFFFFF" d="M77.8,6.2c0,3.4,2.8,6.2,6.2,6.2c3.4,0,6.2-2.8,6.2-6.2S87.4,0,84,0C80.6,0,77.8,2.8,77.8,6.2L77.8,6.2
		L77.8,6.2z"/>

<g>
	<!-- 消息 -->
	<path fill="#FFFFFF" d="M44.9,0.8H27.1c-1.3,0-2.2,1.1-2.2,2.2v14.9c0,1.3,1,2.2,2.2,2.2h1.3c-0.3,0.9-1,2.5-2,3.1c0,0,5.6-0.6,7.7-3.1
	h10.7c1.3,0,2.2-1,2.2-2.2V3C47.1,1.9,46.1,0.8,44.9,0.8z M30,8.9c0.8,0,1.5,0.7,1.5,1.5c0,0.8-0.7,1.5-1.5,1.5
	c-0.8,0-1.5-0.7-1.5-1.5C28.5,9.6,29.2,8.9,30,8.9z M36,11.9c-0.8,0-1.5-0.7-1.5-1.5C34.5,9.6,35.2,9,36,9s1.5,0.7,1.5,1.5
	C37.5,11.4,36.8,11.9,36,11.9z M42,11.9c-0.8,0-1.5-0.7-1.5-1.5c0-0.8,0.7-1.5,1.5-1.5s1.5,0.7,1.5,1.5C43.5,11.2,42.8,11.9,42,11.9
	z"/>
</g>


<!-- 首页 -->
<path fill="#238EF0" d="M23.3,35.4L23.3,35.4l-9.9-10.7l0,0C13.1,24.3,12.6,24,12,24l0,0l0,0c0,0,0,0,0,0c-0.5,0-0.9,0.2-1.2,0.5l0,0
	l-10,10.8l0,0c-0.3,0.3-0.5,0.7-0.5,1.2c0,0.9,0.7,1.6,1.6,1.6c0,0,0,0,0,0l0,0H3v5.5C3,46,3.3,48,5.7,48h3.8v-7.6h4.9V48h3.8
	c2.4,0,2.7-2,2.7-4.4v-5.5h1.1c0.9,0,1.6-0.7,1.6-1.6C23.7,36.1,23.6,35.7,23.3,35.4L23.3,35.4z"/>
<g>
	<!-- 消息 -->
	<path fill="#238EF0" d="M44.9,24.8H27.1c-1.3,0-2.2,1.1-2.2,2.2v14.9c0,1.3,1,2.2,2.2,2.2h1.3c-0.3,0.9-1,2.5-2,3.1
	c0,0,5.6-0.6,7.7-3.1h10.7c1.3,0,2.2-1,2.2-2.2V27C47.1,25.9,46.1,24.8,44.9,24.8z M30,32.9c0.8,0,1.5,0.7,1.5,1.5s-0.7,1.5-1.5,1.5
	c-0.8,0-1.5-0.7-1.5-1.5S29.2,32.9,30,32.9z M36,35.9c-0.8,0-1.5-0.7-1.5-1.5S35.2,33,36,33s1.5,0.7,1.5,1.5S36.8,35.9,36,35.9z
	 M42,35.9c-0.8,0-1.5-0.7-1.5-1.5s0.7-1.5,1.5-1.5s1.5,0.7,1.5,1.5S42.8,35.9,42,35.9z"/>

</g>
<g>
	<!-- 订单 -->
	<path fill="#238EF0" d="M63,28.2h-7.5v-2.8H57c0-0.4,0.1-0.7,0.4-1c0.3-0.3,0.6-0.4,1.1-0.4H60c0.4,0,0.8,0.1,1.1,0.4
	c0.3,0.3,0.4,0.6,0.4,1H63L63,28.2L63,28.2z M59.2,27c0.3,0,0.5-0.1,0.7-0.3c0.2-0.2,0.3-0.4,0.3-0.6c0-0.3-0.1-0.5-0.3-0.6
	c-0.2-0.2-0.4-0.2-0.7-0.2c-0.3,0-0.5,0.1-0.7,0.2c-0.2,0.2-0.3,0.4-0.3,0.6c0,0.2,0.1,0.4,0.3,0.6C58.7,26.9,59,27,59.2,27L59.2,27
	L59.2,27z M65.2,38.1c0.7,0,1.4,0.1,2,0.4c0.6,0.3,1.2,0.6,1.7,1.1c0.5,0.5,0.9,1,1.1,1.6c0.3,0.6,0.4,1.2,0.4,1.9
	c0,0.7-0.1,1.3-0.4,1.9c-0.3,0.6-0.7,1.1-1.1,1.6c-0.5,0.5-1,0.8-1.7,1.1c-0.6,0.3-1.3,0.4-2,0.4c-0.7,0-1.4-0.1-2.1-0.4
	c-0.6-0.3-1.2-0.6-1.7-1.1c-0.5-0.5-0.9-1-1.1-1.6C60.1,44.4,60,43.7,60,43c0-0.7,0.1-1.3,0.4-1.9c0.3-0.6,0.7-1.1,1.1-1.6
	c0.5-0.5,1-0.8,1.7-1.1C63.8,38.2,64.5,38.1,65.2,38.1L65.2,38.1z M68.5,42.6c0.1-0.1,0.2-0.2,0.3-0.4c0.1-0.2,0.1-0.3-0.1-0.4
	c0,0-0.1-0.1-0.2-0.2c-0.1-0.1-0.2-0.2-0.2-0.2c-0.2-0.1-0.3-0.1-0.5,0c-0.1,0.1-0.3,0.2-0.4,0.3c-0.4,0.3-0.7,0.7-1.1,1
	c-0.4,0.3-0.7,0.6-1,0.9c-0.1,0.1-0.2,0.2-0.4,0.2c-0.1,0-0.2,0-0.3-0.1c0,0-0.1-0.1-0.2-0.2c-0.1-0.1-0.2-0.2-0.3-0.3
	c-0.1-0.1-0.2-0.2-0.3-0.3c-0.1-0.1-0.2-0.2-0.2-0.2c-0.1-0.1-0.2-0.1-0.3-0.2c-0.1,0-0.2,0-0.4,0.1c0,0-0.1,0-0.1,0.1
	c-0.1,0.1-0.1,0.1-0.2,0.2c-0.1,0.1-0.1,0.1-0.2,0.2c-0.1,0.1-0.1,0.1-0.1,0.1c-0.2,0.2-0.2,0.5,0.1,0.8c0.1,0.1,0.2,0.2,0.4,0.4
	c0.2,0.2,0.3,0.3,0.5,0.5c0.2,0.2,0.3,0.4,0.5,0.5c0.2,0.2,0.3,0.3,0.5,0.4c0.1,0.1,0.3,0.2,0.5,0.2c0.2,0,0.4-0.1,0.5-0.2
	c0.2-0.2,0.5-0.4,0.8-0.7c0.3-0.3,0.6-0.6,0.9-0.8c0.3-0.3,0.6-0.6,0.9-0.8C68,43.1,68.3,42.8,68.5,42.6L68.5,42.6L68.5,42.6z
	 M58.4,42.4c0,0.1,0,0.2,0,0.3c0,0.1,0,0.2,0,0.3c0,0.7,0.1,1.3,0.3,1.9c0.2,0.6,0.5,1.2,0.9,1.7h-7c-0.3,0-0.6-0.1-1-0.2
	c-0.4-0.2-0.7-0.4-1-0.7c-0.3-0.3-0.6-0.6-0.8-0.9c-0.2-0.3-0.3-0.7-0.3-1.1v-14c0-0.3,0.1-0.6,0.2-1c0.2-0.3,0.4-0.7,0.6-0.9
	c0.3-0.3,0.6-0.5,0.9-0.7c0.3-0.2,0.7-0.3,1.1-0.3H54v2.8h10.5v-2.8h1.5c0.4,0,0.7,0.1,1.1,0.2c0.4,0.2,0.7,0.4,1,0.6
	c0.3,0.3,0.5,0.6,0.7,0.9c0.2,0.4,0.3,0.7,0.3,1.2v8c-0.6-0.3-1.2-0.6-1.8-0.8c-0.6-0.2-1.3-0.3-2-0.3H65c0.3-0.1,0.5-0.3,0.7-0.5
	c0.2-0.2,0.3-0.5,0.3-0.8c0-0.4-0.1-0.7-0.4-1c-0.3-0.3-0.6-0.4-1.1-0.4H54c-0.4,0-0.8,0.1-1.1,0.4c-0.3,0.3-0.4,0.6-0.4,1
	c0,0.4,0.1,0.7,0.4,1c0.3,0.3,0.7,0.4,1.1,0.4h10c-1,0.2-1.8,0.5-2.6,1c-0.8,0.5-1.4,1.1-1.9,1.9H54c-0.4,0-0.8,0.1-1.1,0.4
	c-0.3,0.3-0.4,0.6-0.4,1c0,0.4,0.1,0.7,0.4,1c0.3,0.3,0.7,0.4,1.1,0.4L58.4,42.4L58.4,42.4z"/>
	<circle fill="#238EF0" cx="106" cy="32" r="3"/>
</g>
<g>
	<!-- 订单 -->
	<path fill="#FFFFFF" d="M63,4.2h-7.5V1.4H57c0-0.4,0.1-0.7,0.4-1C57.7,0.1,58.1,0,58.5,0H60c0.4,0,0.8,0.1,1.1,0.4
	c0.3,0.3,0.4,0.6,0.4,1H63L63,4.2L63,4.2z M59.2,3c0.3,0,0.5-0.1,0.7-0.3c0.2-0.2,0.3-0.4,0.3-0.6c0-0.3-0.1-0.5-0.3-0.6
	c-0.2-0.2-0.4-0.2-0.7-0.2c-0.3,0-0.5,0.1-0.7,0.2c-0.2,0.2-0.3,0.4-0.3,0.6c0,0.2,0.1,0.4,0.3,0.6C58.7,2.9,59,3,59.2,3L59.2,3
	L59.2,3z M65.2,14.1c0.7,0,1.4,0.1,2,0.4c0.6,0.3,1.2,0.6,1.7,1.1c0.5,0.5,0.9,1,1.1,1.6c0.3,0.6,0.4,1.2,0.4,1.9
	c0,0.7-0.1,1.3-0.4,1.9c-0.3,0.6-0.7,1.1-1.1,1.6c-0.5,0.5-1,0.8-1.7,1.1c-0.6,0.3-1.3,0.4-2,0.4c-0.7,0-1.4-0.1-2.1-0.4
	c-0.6-0.3-1.2-0.6-1.7-1.1c-0.5-0.5-0.9-1-1.1-1.6C60.1,20.4,60,19.7,60,19c0-0.7,0.1-1.3,0.4-1.9c0.3-0.6,0.7-1.1,1.1-1.6
	c0.5-0.5,1-0.8,1.7-1.1C63.8,14.2,64.5,14.1,65.2,14.1L65.2,14.1z M68.5,18.6c0.1-0.1,0.2-0.2,0.3-0.4c0.1-0.2,0.1-0.3-0.1-0.4
	c0,0-0.1-0.1-0.2-0.2c-0.1-0.1-0.2-0.2-0.2-0.2c-0.2-0.1-0.3-0.1-0.5,0c-0.1,0.1-0.3,0.2-0.4,0.3c-0.4,0.3-0.7,0.7-1.1,1
	c-0.4,0.3-0.7,0.6-1,0.9c-0.1,0.1-0.2,0.2-0.4,0.2c-0.1,0-0.2,0-0.3-0.1c0,0-0.1-0.1-0.2-0.2c-0.1-0.1-0.2-0.2-0.3-0.3
	c-0.1-0.1-0.2-0.2-0.3-0.3c-0.1-0.1-0.2-0.2-0.2-0.2c-0.1-0.1-0.2-0.1-0.3-0.2c-0.1,0-0.2,0-0.4,0.1c0,0-0.1,0-0.1,0.1
	c-0.1,0.1-0.1,0.1-0.2,0.2c-0.1,0.1-0.1,0.1-0.2,0.2c-0.1,0.1-0.1,0.1-0.1,0.1c-0.2,0.2-0.2,0.5,0.1,0.8c0.1,0.1,0.2,0.2,0.4,0.4
	c0.2,0.2,0.3,0.3,0.5,0.5c0.2,0.2,0.3,0.4,0.5,0.5c0.2,0.2,0.3,0.3,0.5,0.4c0.1,0.1,0.3,0.2,0.5,0.2c0.2,0,0.4-0.1,0.5-0.2
	c0.2-0.2,0.5-0.4,0.8-0.7c0.3-0.3,0.6-0.6,0.9-0.8c0.3-0.3,0.6-0.6,0.9-0.8C68,19.1,68.3,18.8,68.5,18.6L68.5,18.6L68.5,18.6z
	 M58.4,18.4c0,0.1,0,0.2,0,0.3s0,0.2,0,0.3c0,0.7,0.1,1.3,0.3,1.9c0.2,0.6,0.5,1.2,0.9,1.7h-7c-0.3,0-0.6-0.1-1-0.2
	c-0.4-0.2-0.7-0.4-1-0.7c-0.3-0.3-0.6-0.6-0.8-0.9c-0.2-0.3-0.3-0.7-0.3-1.1v-14c0-0.3,0.1-0.6,0.2-1c0.2-0.3,0.4-0.7,0.6-0.9
	c0.3-0.3,0.6-0.5,0.9-0.7c0.3-0.2,0.7-0.3,1.1-0.3H54v2.8h10.5V2.8h1.5c0.4,0,0.7,0.1,1.1,0.2s0.7,0.4,1,0.6
	c0.3,0.3,0.5,0.6,0.7,0.9C68.9,4.9,69,5.3,69,5.7v8c-0.6-0.3-1.2-0.6-1.8-0.8c-0.6-0.2-1.3-0.3-2-0.3H65c0.3-0.1,0.5-0.3,0.7-0.5
	c0.2-0.2,0.3-0.5,0.3-0.8c0-0.4-0.1-0.7-0.4-1c-0.3-0.3-0.6-0.4-1.1-0.4H54c-0.4,0-0.8,0.1-1.1,0.4c-0.3,0.3-0.4,0.6-0.4,1
	c0,0.4,0.1,0.7,0.4,1c0.3,0.3,0.7,0.4,1.1,0.4h10c-1,0.2-1.8,0.5-2.6,1c-0.8,0.5-1.4,1.1-1.9,1.9H54c-0.4,0-0.8,0.1-1.1,0.4
	c-0.3,0.3-0.4,0.6-0.4,1c0,0.4,0.1,0.7,0.4,1c0.3,0.3,0.7,0.4,1.1,0.4L58.4,18.4L58.4,18.4z"/>
</g>

</svg>
